<svg width="10" height="5" viewBox="0 0 10 5" fill="none" xmlns="http://www.w3.org/2000/svg">
<path d="M9.66667 0.779973C9.66701 0.87957 9.64503 0.977976 9.60234 1.06796C9.55966 1.15795 9.49735 1.23723 9.42 1.29997L5.42001 4.51997C5.30072 4.61803 5.15109 4.67163 4.99667 4.67163C4.84226 4.67163 4.69263 4.61803 4.57334 4.51997L0.573339 1.18664C0.437195 1.07348 0.351578 0.910873 0.335325 0.734589C0.319072 0.558305 0.373513 0.382784 0.486672 0.246639C0.599832 0.110495 0.762439 0.024879 0.938723 0.00862599C1.11501 -0.007627 1.29053 0.0468135 1.42667 0.159973L5.00001 3.13997L8.57334 0.259973C8.6712 0.178451 8.79036 0.126666 8.91672 0.110746C9.04309 0.0948268 9.17137 0.115439 9.28639 0.170142C9.40141 0.224846 9.49835 0.311353 9.56574 0.419427C9.63313 0.5275 9.66816 0.652617 9.66667 0.779973Z" fill="#1F1C4E"/>
</svg>
