<svg width="215" height="68" viewBox="0 0 215 68" fill="none" xmlns="http://www.w3.org/2000/svg">
<path d="M63.707 59.3432L63.843 65.8745H62.5212L62.5018 61.598L60.2664 65.8745H59.6444L58.4586 61.598L57.3895 65.8745H56.0677L57.7977 59.3432H59.0418L60.2372 63.5419L62.4629 59.3432H63.707Z" fill="white"/>
<path d="M69.4827 65.8745L69.1425 64.6304H66.3823L65.7505 65.8745H64.351L67.8499 59.3432H68.9773L70.8823 65.8745H69.4827ZM67.014 63.3863H68.8218L68.2095 61.0537L67.014 63.3863Z" fill="white"/>
<path d="M76.5376 59.3432H77.7817L76.9847 65.8745H75.7406L76.0614 63.2308H73.2622L72.9415 65.8745H71.6975L72.4944 59.3432H73.7385L73.4177 61.9868H76.2169L76.5376 59.3432Z" fill="white"/>
<path d="M84.0105 64.6304H84.9435L84.6422 67.1185H83.3982L83.5537 65.8745H79.355L79.1995 67.1185H77.9554L78.2567 64.6304C78.9176 64.449 79.3776 64.0019 79.6368 63.2892C79.9025 62.5699 80.1519 61.2546 80.3852 59.3432H84.6617L84.0105 64.6304ZM80.1714 64.6304H82.7664L83.2718 60.5872H81.4057C81.2761 61.6045 81.1174 62.4468 80.9295 63.1142C80.7416 63.7751 80.4889 64.2805 80.1714 64.6304Z" fill="white"/>
<path d="M89.2061 59.3432C90.029 59.3432 90.6251 59.5408 90.9945 59.936C91.3703 60.3313 91.5161 60.8594 91.4318 61.5203C91.3606 62.1099 91.0981 62.6218 90.6446 63.0559C90.1975 63.4835 89.6435 63.6974 88.9826 63.6974H87.583L87.3206 65.8745H86.0766L86.8735 59.3432H89.2061ZM88.9826 62.4533C89.2871 62.4533 89.556 62.3658 89.7893 62.1909C90.0225 62.0159 90.1554 61.7924 90.1878 61.5203C90.2202 61.2222 90.1424 60.9922 89.9545 60.8302C89.7731 60.6682 89.5269 60.5872 89.2159 60.5872H87.9718L87.7385 62.4533H88.9826Z" fill="white"/>
<path d="M96.7851 59.3432H98.2625L93.9666 65.8745H92.4893L94.0443 63.503L92.3532 59.3432H93.8305L94.9676 62.1617L96.7851 59.3432Z" fill="white"/>
<path d="M102.947 57.3216H103.608C103.563 57.7103 103.385 58.0408 103.074 58.3129C102.769 58.5851 102.423 58.7211 102.034 58.7211C101.645 58.7211 101.331 58.5851 101.091 58.3129C100.858 58.0408 100.764 57.7103 100.809 57.3216H101.47C101.444 57.5289 101.493 57.7039 101.616 57.8464C101.745 57.9889 101.911 58.0602 102.111 58.0602C102.319 58.0602 102.503 57.9889 102.665 57.8464C102.827 57.6974 102.921 57.5224 102.947 57.3216ZM100.323 59.3432L99.7692 63.8529L103.589 59.3432H104.833L104.036 65.8745H102.792L103.346 61.3648L99.5262 65.8745H98.2821L99.0791 59.3432H100.323Z" fill="white"/>
<path d="M106.084 64.0084L106.346 59.3432H107.746L106.862 64.0084H106.084ZM106.803 65.8064C106.641 65.9555 106.45 66.03 106.23 66.03C106.009 66.03 105.835 65.9555 105.705 65.8064C105.575 65.6574 105.524 65.4727 105.549 65.2524C105.575 65.0321 105.669 64.8475 105.831 64.6984C106 64.5494 106.194 64.4749 106.414 64.4749C106.635 64.4749 106.81 64.5494 106.939 64.6984C107.075 64.8475 107.13 65.0321 107.104 65.2524C107.072 65.4727 106.972 65.6574 106.803 65.8064Z" fill="white"/>
<path d="M116.375 59.3432H117.852L113.556 65.8745H112.079L113.634 63.503L111.943 59.3432H113.42L114.557 62.1617L116.375 59.3432Z" fill="white"/>
<path d="M117.561 65.8745L119.485 63.6002C119.038 63.4576 118.704 63.1952 118.484 62.8129C118.27 62.4241 118.192 61.9933 118.251 61.5203C118.335 60.8594 118.607 60.3313 119.067 59.936C119.534 59.5408 120.178 59.3432 121.001 59.3432H123.334L122.537 65.8745H121.293L121.555 63.6974H120.807L119.077 65.8745H117.561ZM121.944 60.5872H120.7C120.382 60.5872 120.11 60.6714 119.883 60.8399C119.657 61.0019 119.527 61.2287 119.495 61.5203C119.462 61.7924 119.54 62.0159 119.728 62.1909C119.916 62.3658 120.162 62.4533 120.467 62.4533H121.711L121.944 60.5872Z" fill="white"/>
<path d="M128.44 62.3658C128.803 62.463 129.056 62.6509 129.198 62.9295C129.347 63.2082 129.399 63.5354 129.354 63.9112C129.276 64.4879 129.014 64.9609 128.567 65.3302C128.126 65.693 127.562 65.8745 126.875 65.8745H123.979L124.776 59.3432H127.109C127.893 59.3432 128.486 59.4825 128.887 59.7611C129.296 60.0397 129.464 60.4706 129.393 61.0537C129.347 61.3648 129.237 61.6369 129.062 61.8701C128.894 62.0969 128.686 62.2622 128.44 62.3658ZM125.874 60.5872L125.719 61.8313H126.885C127.656 61.8313 128.071 61.6239 128.129 61.2092C128.155 60.9695 128.077 60.8075 127.896 60.7233C127.721 60.6326 127.436 60.5872 127.041 60.5872H125.874ZM126.691 64.6304C127.578 64.6304 128.055 64.3453 128.12 63.7751C128.158 63.49 128.068 63.2762 127.847 63.1336C127.634 62.9911 127.319 62.9198 126.905 62.9198H125.583L125.369 64.6304H126.691Z" fill="white"/>
<path d="M136.789 59.3432L135.992 65.8745H134.748L135.399 60.5872H133.222L132.882 63.3086C132.791 64.0732 132.642 64.6596 132.435 65.0678C132.234 65.476 131.884 65.7643 131.385 65.9328C131.016 66.0624 130.579 66.0688 130.073 65.9522L130.219 64.7082C130.362 64.76 130.52 64.7794 130.695 64.7665C130.87 64.7535 131.016 64.7146 131.133 64.6498C131.379 64.5008 131.531 64.1995 131.59 63.746L132.124 59.3432H136.789Z" fill="white"/>
<path d="M137.117 65.8745L139.041 63.6002C138.594 63.4576 138.261 63.1952 138.04 62.8129C137.827 62.4241 137.749 61.9933 137.807 61.5203C137.891 60.8594 138.164 60.3313 138.624 59.936C139.09 59.5408 139.735 59.3432 140.558 59.3432H142.89L142.093 65.8745H140.849L141.112 63.6974H140.363L138.633 65.8745H137.117ZM141.5 60.5872H140.256C139.939 60.5872 139.667 60.6714 139.44 60.8399C139.213 61.0019 139.084 61.2287 139.051 61.5203C139.019 61.7924 139.097 62.0159 139.284 62.1909C139.472 62.3658 139.719 62.4533 140.023 62.4533H141.267L141.5 60.5872Z" fill="white"/>
<path d="M148.201 57.3216H148.862C148.816 57.7103 148.638 58.0408 148.327 58.3129C148.023 58.5851 147.676 58.7211 147.287 58.7211C146.898 58.7211 146.584 58.5851 146.344 58.3129C146.111 58.0408 146.017 57.7103 146.063 57.3216H146.724C146.698 57.5289 146.746 57.7039 146.869 57.8464C146.999 57.9889 147.164 58.0602 147.365 58.0602C147.572 58.0602 147.757 57.9889 147.919 57.8464C148.081 57.6974 148.175 57.5224 148.201 57.3216ZM145.577 59.3432L145.023 63.8529L148.842 59.3432H150.086L149.289 65.8745H148.045L148.599 61.3648L144.78 65.8745H143.536L144.333 59.3432H145.577Z" fill="white"/>
<path d="M151.337 64.0084L151.6 59.3432H152.999L152.115 64.0084H151.337ZM152.057 65.8064C151.895 65.9555 151.704 66.03 151.483 66.03C151.263 66.03 151.088 65.9555 150.958 65.8064C150.829 65.6574 150.777 65.4727 150.803 65.2524C150.829 65.0321 150.923 64.8475 151.085 64.6984C151.253 64.5494 151.448 64.4749 151.668 64.4749C151.888 64.4749 152.063 64.5494 152.193 64.6984C152.329 64.8475 152.384 65.0321 152.358 65.2524C152.326 65.4727 152.225 65.6574 152.057 65.8064Z" fill="white"/>
<path d="M161.327 62.3658C161.69 62.463 161.942 62.6509 162.085 62.9295C162.234 63.2082 162.286 63.5354 162.24 63.9112C162.163 64.4879 161.9 64.9609 161.453 65.3302C161.013 65.693 160.449 65.8745 159.762 65.8745H156.866L157.663 59.3432H159.995C160.779 59.3432 161.372 59.4825 161.774 59.7611C162.182 60.0397 162.351 60.4706 162.279 61.0537C162.234 61.3648 162.124 61.6369 161.949 61.8701C161.78 62.0969 161.573 62.2622 161.327 62.3658ZM158.761 60.5872L158.605 61.8313H159.772C160.543 61.8313 160.958 61.6239 161.016 61.2092C161.042 60.9695 160.964 60.8075 160.783 60.7233C160.608 60.6326 160.323 60.5872 159.927 60.5872H158.761ZM159.577 64.6304C160.465 64.6304 160.941 64.3453 161.006 63.7751C161.045 63.49 160.954 63.2762 160.734 63.1336C160.52 62.9911 160.206 62.9198 159.791 62.9198H158.469L158.256 64.6304H159.577Z" fill="white"/>
<path d="M164.293 65.8745H163.049L163.846 59.3432H165.09L164.293 65.8745Z" fill="white"/>
<path d="M171.319 64.6304H172.252L171.951 67.1185H170.707L170.862 65.8745H166.663L166.508 67.1185H165.264L165.565 64.6304C166.226 64.449 166.686 64.0019 166.945 63.2892C167.211 62.5699 167.46 61.2546 167.694 59.3432H171.97L171.319 64.6304ZM167.48 64.6304H170.075L170.58 60.5872H168.714C168.585 61.6045 168.426 62.4468 168.238 63.1142C168.05 63.7751 167.797 64.2805 167.48 64.6304Z" fill="white"/>
<path d="M176.135 62.463L178.672 65.8745H177.098L174.979 63.017L174.629 65.8745H173.385L174.182 59.3432H175.426L175.096 62.0451L177.739 59.3432H179.314L176.135 62.463Z" fill="white"/>
<path d="M182.698 59.3432C183.521 59.3432 184.117 59.5408 184.486 59.936C184.862 60.3313 185.008 60.8594 184.924 61.5203C184.852 62.1099 184.59 62.6218 184.136 63.0559C183.689 63.4835 183.135 63.6974 182.474 63.6974H181.075L180.812 65.8745H179.568L180.365 59.3432H182.698ZM182.474 62.4533C182.779 62.4533 183.048 62.3658 183.281 62.1909C183.514 62.0159 183.647 61.7924 183.68 61.5203C183.712 61.2222 183.634 60.9922 183.446 60.8302C183.265 60.6682 183.019 60.5872 182.708 60.5872H181.464L181.23 62.4533H182.474Z" fill="white"/>
<path d="M187.404 59.3432L186.85 63.8529L190.669 59.3432H191.913L191.117 65.8745H189.872L190.426 61.3648L186.607 65.8745H185.363L186.16 59.3432H187.404Z" fill="white"/>
<path d="M197.013 62.3658C197.376 62.463 197.629 62.6509 197.771 62.9295C197.921 63.2082 197.972 63.5354 197.927 63.9112C197.849 64.4879 197.587 64.9609 197.14 65.3302C196.699 65.693 196.135 65.8745 195.449 65.8745H192.552L193.349 59.3432H195.682C196.466 59.3432 197.059 59.4825 197.46 59.7611C197.869 60.0397 198.037 60.4706 197.966 61.0537C197.921 61.3648 197.81 61.6369 197.635 61.8701C197.467 62.0969 197.26 62.2622 197.013 62.3658ZM194.448 60.5872L194.292 61.8313H195.458C196.229 61.8313 196.644 61.6239 196.702 61.2092C196.728 60.9695 196.651 60.8075 196.469 60.7233C196.294 60.6326 196.009 60.5872 195.614 60.5872H194.448ZM195.264 64.6304C196.152 64.6304 196.628 64.3453 196.693 63.7751C196.732 63.49 196.641 63.2762 196.421 63.1336C196.207 62.9911 195.892 62.9198 195.478 62.9198H194.156L193.942 64.6304H195.264Z" fill="white"/>
<path d="M203.321 65.8745L202.981 64.6304H200.221L199.589 65.8745H198.19L201.689 59.3432H202.816L204.721 65.8745H203.321ZM200.853 63.3863H202.66L202.048 61.0537L200.853 63.3863Z" fill="white"/>
<path d="M210.201 57.3216H210.862C210.817 57.7103 210.639 58.0408 210.328 58.3129C210.023 58.5851 209.677 58.7211 209.288 58.7211C208.899 58.7211 208.585 58.5851 208.345 58.3129C208.112 58.0408 208.018 57.7103 208.063 57.3216H208.724C208.698 57.5289 208.747 57.7039 208.87 57.8464C208.999 57.9889 209.165 58.0602 209.366 58.0602C209.573 58.0602 209.758 57.9889 209.92 57.8464C210.081 57.6974 210.175 57.5224 210.201 57.3216ZM207.577 59.3432L207.023 63.8529L210.843 59.3432H212.087L211.29 65.8745H210.046L210.6 61.3648L206.78 65.8745H205.536L206.333 59.3432H207.577Z" fill="white"/>
<path d="M213.338 64.0084L213.6 59.3432H215L214.116 64.0084H213.338ZM214.057 65.8064C213.895 65.9555 213.704 66.03 213.484 66.03C213.263 66.03 213.089 65.9555 212.959 65.8064C212.829 65.6574 212.778 65.4727 212.803 65.2524C212.829 65.0321 212.923 64.8475 213.085 64.6984C213.254 64.5494 213.448 64.4749 213.668 64.4749C213.889 64.4749 214.064 64.5494 214.193 64.6984C214.329 64.8475 214.384 65.0321 214.359 65.2524C214.326 65.4727 214.226 65.6574 214.057 65.8064Z" fill="white"/>
<g clip-path="url(#clip0)">
<path d="M29.4647 37.11L37.6416 17.1638H35.5543L19.9076 53.9782H0L21.4947 7.28636C23.5303 2.85194 27.9293 0.0173899 32.7769 0.0173899H51.4079L46.9572 10.4339H48.7513L53.2365 0H73.0061V53.9782H57.1525V17.1464H55.1169L47.7852 37.1622L29.4647 37.11Z" fill="#FFDA00"/>
<path d="M74.2137 0.0174255H108.733L101.263 17.1986H91.4647V18.6941H102.229L110.544 0.0174255H128.865L109.578 45.1963C107.301 50.5176 102.109 53.9608 96.364 53.9608C94.8631 53.9608 93.276 53.9608 91.6889 53.9782C84.547 54.0303 74.2137 53.9782 74.2137 53.9782V37.1622H94.4146L95.0011 35.5101H87.3935C80.1135 35.5101 74.2137 29.5628 74.2137 22.2243V0.0174255Z" fill="#FFDA00"/>
<path d="M161.987 0V25.337L150.359 25.3892L136.869 25.4414L138.37 18.7289L150.342 18.6593V17.3029H138.698L136.869 25.424L133.729 37.11H150.359V35.5275L134.144 35.5449L136.196 27.9107L150.98 27.8586L161.987 27.8934V53.9782H107.232L126.432 8.52104C128.623 3.35625 133.643 0 139.215 0C149.635 0 153.603 0 161.987 0Z" fill="#FFDA00"/>
</g>
<defs>
<clipPath id="clip0">
<rect width="161.987" height="53.9956" fill="white"/>
</clipPath>
</defs>
</svg>
