<svg width="16" height="12" viewBox="0 0 16 12" fill="none" xmlns="http://www.w3.org/2000/svg">
<g clip-path="url(#clip0)">
<path d="M15.8591 0.803833L11.0067 5.62505L15.8591 10.4463C15.9468 10.2629 16.0001 10.0602 16.0001 9.8438V1.4063C16.0001 1.18983 15.9468 0.987177 15.8591 0.803833Z" fill="#A6A6A6"/>
<path d="M14.5938 0H1.4063C1.18983 0 0.987177 0.0532189 0.803833 0.140938L7.0058 6.31167C7.55418 6.86005 8.44593 6.86005 8.9943 6.31167L15.1963 0.140938C15.0129 0.0532189 14.8103 0 14.5938 0Z" fill="#A6A6A6"/>
<path d="M0.140938 0.803833C0.0532188 0.987177 0 1.18983 0 1.4063V9.8438C0 10.0603 0.0532188 10.263 0.140938 10.4463L4.99341 5.62505L0.140938 0.803833Z" fill="#A6A6A6"/>
<path d="M10.3438 6.2879L9.65715 6.97456C8.74343 7.88828 7.25665 7.88828 6.34293 6.97456L5.6563 6.2879L0.803833 11.1091C0.987177 11.1968 1.18983 11.2501 1.4063 11.2501H14.5938C14.8103 11.2501 15.0129 11.1968 15.1963 11.1091L10.3438 6.2879Z" fill="#A6A6A6"/>
</g>
<defs>
<clipPath id="clip0">
<rect width="16" height="11.25" fill="white"/>
</clipPath>
</defs>
</svg>
