<svg width="120" height="16" viewBox="0 0 120 16" fill="none" xmlns="http://www.w3.org/2000/svg">
<g clip-path="url(#clip0)">
<path d="M10.0102 0.41947V3.64594H7.15921C6.81076 3.64594 6.52565 3.93632 6.52565 4.29122V6.22712H9.69345V9.45358H6.52565V15.9065H3.35786V9.45355H0.823608V6.22708H3.35786V4.29119C3.35786 2.25851 4.87838 0.580764 6.84241 0.419434H10.0102V0.41947Z" fill="#1F1C4E"/>
</g>
<g clip-path="url(#clip1)">
<path d="M46.9532 4.69486C46.9157 3.84637 46.7785 3.26305 46.582 2.75759C46.3792 2.22106 46.0673 1.74071 45.6586 1.34139C45.2592 0.935852 44.7757 0.620733 44.2454 0.421133C43.737 0.22458 43.1567 0.0873705 42.3083 0.0499608C41.4534 0.00938288 41.1821 0 39.014 0C36.846 0 36.5746 0.00938288 35.7229 0.0467926C34.8745 0.0842023 34.2911 0.221534 33.7858 0.417965C33.2491 0.620733 32.7688 0.932684 32.3695 1.34139C31.9639 1.74071 31.6489 2.22423 31.4492 2.75455C31.2527 3.26305 31.1154 3.84321 31.078 4.69169C31.0375 5.54651 31.0281 5.81788 31.0281 7.98593C31.0281 10.154 31.0375 10.4254 31.0749 11.277C31.1123 12.1255 31.2496 12.7088 31.4462 13.2143C31.6489 13.7508 31.9639 14.2312 32.3695 14.6305C32.7688 15.036 33.2523 15.3511 33.7826 15.5507C34.2911 15.7473 34.8713 15.8845 35.7199 15.9219C36.5714 15.9594 36.8429 15.9687 39.011 15.9687C41.179 15.9687 41.4504 15.9594 42.302 15.9219C43.1505 15.8845 43.7338 15.7473 44.2392 15.5507C45.3124 15.1358 46.1608 14.2873 46.5758 13.2143C46.7722 12.7058 46.9095 12.1255 46.9469 11.277C46.9843 10.4254 46.9937 10.154 46.9937 7.98593C46.9937 5.81788 46.9906 5.54651 46.9532 4.69486ZM45.5151 11.2146C45.4808 11.9945 45.3498 12.4156 45.2406 12.6964C44.9723 13.3921 44.4201 13.9442 43.7245 14.2125C43.4437 14.3217 43.0195 14.4527 42.2427 14.4869C41.4004 14.5245 41.1478 14.5337 39.0172 14.5337C36.8865 14.5337 36.6308 14.5245 35.7915 14.4869C35.0117 14.4527 34.5905 14.3217 34.3098 14.2125C33.9636 14.0846 33.6485 13.8818 33.3927 13.6166C33.1275 13.3577 32.9248 13.0457 32.7968 12.6996C32.6876 12.4188 32.5566 11.9945 32.5224 11.2178C32.4849 10.3755 32.4756 10.1228 32.4756 7.99215C32.4756 5.8615 32.4849 5.60573 32.5224 4.76663C32.5566 3.98675 32.6876 3.56562 32.7968 3.28486C32.9248 2.93855 33.1275 2.62355 33.3959 2.36766C33.6547 2.1025 33.9666 1.89973 34.3129 1.7719C34.5937 1.66272 35.018 1.53173 35.7947 1.49736C36.637 1.45995 36.8897 1.45057 39.0202 1.45057C41.154 1.45057 41.4066 1.45995 42.2459 1.49736C43.0257 1.53173 43.4469 1.66272 43.7276 1.7719C44.0738 1.89973 44.3889 2.1025 44.6447 2.36766C44.9099 2.6266 45.1126 2.93855 45.2406 3.28486C45.3498 3.56562 45.4808 3.9898 45.5151 4.76663C45.5525 5.6089 45.5619 5.8615 45.5619 7.99215C45.5619 10.1228 45.5525 10.3724 45.5151 11.2146Z" fill="#1F1C4E"/>
<path d="M39.014 3.88379C36.7493 3.88379 34.9119 5.72113 34.9119 7.98594C34.9119 10.2507 36.7493 12.0881 39.014 12.0881C41.2788 12.0881 43.1162 10.2507 43.1162 7.98594C43.1162 5.72113 41.2788 3.88379 39.014 3.88379ZM39.014 10.6469C37.5448 10.6469 36.3531 9.45528 36.3531 7.98594C36.3531 6.5166 37.5448 5.32498 39.014 5.32498C40.4834 5.32498 41.675 6.5166 41.675 7.98594C41.675 9.45528 40.4834 10.6469 39.014 10.6469Z" fill="#1F1C4E"/>
<path d="M44.2361 3.72158C44.2361 4.25044 43.8073 4.67925 43.2783 4.67925C42.7495 4.67925 42.3207 4.25044 42.3207 3.72158C42.3207 3.19261 42.7495 2.76392 43.2783 2.76392C43.8073 2.76392 44.2361 3.19261 44.2361 3.72158Z" fill="#1F1C4E"/>
</g>
<path d="M119.689 3.74513C119.469 2.78785 118.686 2.0816 117.743 1.97625C115.511 1.72708 113.252 1.72578 111.003 1.72708C108.754 1.72578 106.494 1.72708 104.262 1.97625C103.32 2.0816 102.538 2.78785 102.317 3.74513C102.004 5.10839 102 6.59651 102 8.00009C102 9.40367 102 10.8916 102.314 12.2547C102.534 13.2118 103.316 13.918 104.259 14.0236C106.491 14.2729 108.75 14.2742 110.999 14.2729C113.249 14.2742 115.508 14.2729 117.739 14.0236C118.682 13.9182 119.465 13.212 119.685 12.2547C119.999 10.8914 120 9.40349 120 8.00009C120 6.59651 120.003 5.10839 119.689 3.74513ZM108.677 10.7939C108.677 8.80278 108.677 6.83249 108.677 4.8412C110.585 5.83656 112.48 6.82524 114.4 7.82674C112.486 8.81931 110.59 9.80204 108.677 10.7939Z" fill="#1F1C4E"/>
<g clip-path="url(#clip2)">
<path d="M72.297 9.79097L72.0329 13.5064C72.4108 13.5064 72.5745 13.344 72.7707 13.1491L74.5426 11.4557L78.2141 14.1445C78.8875 14.5197 79.3619 14.3221 79.5435 13.525L81.9535 2.23241L81.9541 2.23174C82.1677 1.23636 81.5942 0.847117 80.9381 1.09131L66.7725 6.51471C65.8057 6.88998 65.8203 7.42892 66.6081 7.67311L70.2297 8.79958L78.6419 3.53586C79.0378 3.27371 79.3978 3.41876 79.1017 3.68091L72.297 9.79097Z" fill="#1F1C4E"/>
</g>
<defs>
<clipPath id="clip0">
<rect width="10.1053" height="16" fill="white"/>
</clipPath>
<clipPath id="clip1">
<rect width="16" height="15.9688" fill="white" transform="translate(31)"/>
</clipPath>
<clipPath id="clip2">
<rect width="16" height="13.3489" fill="white" transform="translate(66 1)"/>
</clipPath>
</defs>
</svg>
