<svg width="124" height="16" viewBox="0 0 124 16" fill="none" xmlns="http://www.w3.org/2000/svg">
<path d="M13.0103 0.41947V3.64594H10.1593C9.81082 3.64594 9.52572 3.93632 9.52572 4.29122V6.22712H12.6935V9.45358H9.52572V15.9065H6.35792V9.45355H3.82367V6.22708H6.35792V4.29119C6.35792 2.25851 7.87844 0.580764 9.84247 0.419434H13.0103V0.41947Z" fill="#707683"/>
<path d="M51.9531 4.69486C51.9157 3.84637 51.7785 3.26305 51.582 2.75759C51.3792 2.22106 51.0672 1.74071 50.6585 1.34139C50.2592 0.935852 49.7757 0.620733 49.2454 0.421133C48.737 0.22458 48.1567 0.0873705 47.3082 0.0499608C46.4534 0.00938288 46.182 0 44.014 0C41.8459 0 41.5746 0.00938288 40.7229 0.0467926C39.8744 0.0842023 39.2911 0.221534 38.7858 0.417965C38.2491 0.620733 37.7688 0.932684 37.3694 1.34139C36.9639 1.74071 36.6489 2.22423 36.4492 2.75455C36.2526 3.26305 36.1154 3.84321 36.078 4.69169C36.0374 5.54651 36.028 5.81788 36.028 7.98593C36.028 10.154 36.0374 10.4254 36.0748 11.277C36.1122 12.1255 36.2496 12.7088 36.4461 13.2143C36.6489 13.7508 36.9639 14.2312 37.3694 14.6305C37.7688 15.036 38.2523 15.3511 38.7826 15.5507C39.2911 15.7473 39.8713 15.8845 40.7199 15.9219C41.5714 15.9594 41.8429 15.9687 44.0109 15.9687C46.179 15.9687 46.4504 15.9594 47.302 15.9219C48.1505 15.8845 48.7338 15.7473 49.2392 15.5507C50.3123 15.1358 51.1608 14.2873 51.5757 13.2143C51.7722 12.7058 51.9095 12.1255 51.9469 11.277C51.9843 10.4254 51.9937 10.154 51.9937 7.98593C51.9937 5.81788 51.9905 5.54651 51.9531 4.69486ZM50.5151 11.2146C50.4807 11.9945 50.3497 12.4156 50.2406 12.6964C49.9722 13.3921 49.4201 13.9442 48.7244 14.2125C48.4437 14.3217 48.0195 14.4527 47.2427 14.4869C46.4004 14.5245 46.1478 14.5337 44.0171 14.5337C41.8865 14.5337 41.6307 14.5245 40.7915 14.4869C40.0116 14.4527 39.5905 14.3217 39.3097 14.2125C38.9635 14.0846 38.6484 13.8818 38.3927 13.6166C38.1275 13.3577 37.9247 13.0457 37.7968 12.6996C37.6876 12.4188 37.5566 11.9945 37.5224 11.2178C37.4848 10.3755 37.4756 10.1228 37.4756 7.99215C37.4756 5.8615 37.4848 5.60573 37.5224 4.76663C37.5566 3.98675 37.6876 3.56562 37.7968 3.28486C37.9247 2.93855 38.1275 2.62355 38.3958 2.36766C38.6546 2.1025 38.9666 1.89973 39.3129 1.7719C39.5937 1.66272 40.018 1.53173 40.7947 1.49736C41.6369 1.45995 41.8897 1.45057 44.0202 1.45057C46.154 1.45057 46.4066 1.45995 47.2458 1.49736C48.0257 1.53173 48.4468 1.66272 48.7276 1.7719C49.0738 1.89973 49.3889 2.1025 49.6447 2.36766C49.9098 2.6266 50.1126 2.93855 50.2406 3.28486C50.3497 3.56562 50.4807 3.9898 50.5151 4.76663C50.5525 5.6089 50.5619 5.8615 50.5619 7.99215C50.5619 10.1228 50.5525 10.3724 50.5151 11.2146Z" fill="#707683"/>
<path d="M44.014 3.88379C41.7493 3.88379 39.9118 5.72113 39.9118 7.98594C39.9118 10.2507 41.7493 12.0881 44.014 12.0881C46.2788 12.0881 48.1161 10.2507 48.1161 7.98594C48.1161 5.72113 46.2788 3.88379 44.014 3.88379ZM44.014 10.6469C42.5447 10.6469 41.353 9.45528 41.353 7.98594C41.353 6.5166 42.5447 5.32498 44.014 5.32498C45.4833 5.32498 46.6749 6.5166 46.6749 7.98594C46.6749 9.45528 45.4833 10.6469 44.014 10.6469Z" fill="#707683"/>
<path d="M49.2361 3.72158C49.2361 4.25044 48.8073 4.67925 48.2783 4.67925C47.7495 4.67925 47.3206 4.25044 47.3206 3.72158C47.3206 3.19261 47.7495 2.76392 48.2783 2.76392C48.8073 2.76392 49.2361 3.19261 49.2361 3.72158Z" fill="#707683"/>
<path d="M123.724 4.44019C123.528 3.58928 122.832 2.9615 121.994 2.86786C120.01 2.64638 118.002 2.64522 116.003 2.64638C114.003 2.64522 111.995 2.64638 110.011 2.86786C109.173 2.9615 108.478 3.58928 108.282 4.44019C108.003 5.65198 108 6.97476 108 8.22239C108 9.47002 108 10.7926 108.279 12.0042C108.474 12.855 109.17 13.4828 110.008 13.5766C111.992 13.7982 114 13.7994 115.999 13.7982C117.999 13.7994 120.007 13.7982 121.991 13.5766C122.828 13.4829 123.524 12.8552 123.72 12.0042C123.999 10.7925 124 9.46985 124 8.22239C124 6.97476 124.002 5.65198 123.724 4.44019ZM113.935 10.7058C113.935 8.93588 113.935 7.18451 113.935 5.41448C115.631 6.29925 117.315 7.17807 119.022 8.06829C117.321 8.95058 115.635 9.82412 113.935 10.7058Z" fill="#707683"/>
<path d="M78.2969 9.79097L78.0328 13.5064C78.4107 13.5064 78.5744 13.344 78.7707 13.1491L80.5426 11.4557L84.214 14.1445C84.8874 14.5197 85.3618 14.3221 85.5434 13.525L87.9534 2.23241L87.9541 2.23174C88.1677 1.23636 87.5941 0.847117 86.9381 1.09131L72.7724 6.51471C71.8056 6.88998 71.8203 7.42892 72.6081 7.67311L76.2296 8.79958L84.6419 3.53586C85.0378 3.27371 85.3977 3.41876 85.1016 3.68091L78.2969 9.79097Z" fill="#707683"/>
</svg>
