<svg xmlns="http://www.w3.org/2000/svg" width="6752" height="1602" viewBox="0 0 6752 1602">
  <defs>
    <style>
      .cls-1 {
        fill-rule: evenodd;
      }
    </style>
  </defs>
  <path id="_Pencil" data-name="Pencil" class="cls-1" d="M942.11,386.468c-120.9,0-218.431,73.149-281.42,73.149-66.037,0-154.425-69.085-259.069-69.085C202.494,390.532.319,555.117,0.319,866c0,193.031,75.181,397.241,167.633,529.311,78.228,111.76,148.329,203.19,247.893,203.19,98.547,0,142.233-66.03,265.164-66.03,123.947,0,152.393,64,261.1,64s180.84-99.56,248.91-197.09c75.18-111.76,107.69-221.48,108.71-226.56-6.1-2.03-213.35-86.36-213.35-323.076,0-205.223,162.55-297.675,171.69-304.787C1151.4,390.532,987.828,386.468,942.11,386.468ZM886.232,255.41C935,196.484,969.54,114.192,969.54,31.9A150.653,150.653,0,0,0,966.493.405C887.248,3.453,789.716,54.251,731.807,122.32c-44.7,51.813-87.372,133.09-87.372,216.4a139.456,139.456,0,0,0,3.048,28.447,116.73,116.73,0,0,0,21.335,2.032C740.95,369.2,832.386,320.431,886.232,255.41ZM1540.76,114.192V1580.22h262.12V1095.61h296.65c296.66,0,504.93-198.116,504.93-490.711s-202.17-490.707-493.75-490.707H1540.76Zm262.12,214.367h238.75c187.95,0,296.65,100.579,296.65,276.34,0,177.792-109.72,279.387-297.67,279.387H1802.88V328.559ZM3174.99,677.031c145.28,0,242.82,106.676,247.9,259.069h-502.9C2930.15,785.739,3032.76,677.031,3174.99,677.031ZM3423.9,1258.16c-27.43,89.4-116.83,148.33-234.68,148.33-165.6,0-271.26-115.82-271.26-288.53v-15.24h752.82v-82.3c0-327.133-191-539.468-496.8-539.468-310.89,0-507.98,224.526-507.98,564.868,0,343.4,195.06,555.73,518.14,555.73,255,0,443.97-140.2,476.48-343.39H3423.9Zm390.71,322.06h252.97v-623.8c0-154.425,92.45-259.068,237.73-259.068,144.27,0,215.39,85.34,215.39,237.733V1580.22h252.97V884.286c0-248.909-135.12-401.3-372.86-401.3-165.6,0-280.4,77.213-338.31,205.223h-5.08V503.3H3814.61V1580.22ZM5906.02,887.334c-17.27-226.558-193.03-406.382-477.5-406.382-312.91,0-516.1,216.4-516.1,560.808,0,349.49,203.19,559.79,518.13,559.79,270.25,0,456.17-158.49,476.49-399.27H5668.29c-23.37,121.92-106.68,195.06-234.69,195.06-160.52,0-264.15-130.04-264.15-355.58,0-221.479,102.61-355.585,262.12-355.585,135.12,0,215.38,86.356,235.7,201.159h238.75Zm138.75,692.886h252.97V503.3H6044.77V1580.22ZM6169.73,340.75c78.23,0,139.19-61.973,139.19-137.154,0-76.2-60.96-137.154-139.19-137.154-76.2,0-138.17,60.958-138.17,137.154C6031.56,278.777,6093.53,340.75,6169.73,340.75Zm328.73,1239.47h252.97V114.192H6498.46V1580.22Z"/>
</svg>
