<svg width="48" height="20" viewBox="0 0 48 20" fill="none" xmlns="http://www.w3.org/2000/svg">
<path d="M26.5928 1.81208V18.1208C26.5928 19.0604 25.8759 19.8658 24.8982 19.8658C23.9857 19.8658 23.2036 19.0604 23.2036 18.1208V1.81208C23.2036 0.872483 23.9205 0.0671141 24.8982 0.0671141C25.8107 0.0671141 26.5928 0.872483 26.5928 1.81208ZM47.3848 8.65772C47.3848 8.65772 47.1893 8.52349 47.1241 8.52349L32.7848 0.33557C32.2634 0 31.6768 0.0671141 31.1553 0.33557C31.0902 0.33557 31.0902 0.402685 31.025 0.402685C31.025 0.402685 31.025 0.402685 30.9598 0.402685L30.8946 0.469799C30.8946 0.469799 30.8295 0.469799 30.8295 0.536913C30.8295 0.536913 30.7643 0.536913 30.7643 0.604027C30.7643 0.604027 30.6991 0.738255 30.6339 0.738255C30.3732 1.07383 30.2428 1.47651 30.2428 1.87919V18.1208C30.2428 18.1879 30.2428 18.255 30.2428 18.3221C30.2428 18.5906 30.308 18.7919 30.4384 18.9933C30.8946 19.7987 31.9375 20.0671 32.7196 19.5973L46.9286 11.4765C47.2544 11.3423 47.5803 11.0067 47.7107 10.7383C48.1669 10.0671 48.1018 9.12752 47.3848 8.65772ZM42.3009 10.3356C41.4536 10.8725 34.3491 14.7651 34.3491 14.7651C34.3491 14.7651 33.6973 15.2349 33.6973 14.3624C33.6973 13.4899 33.6973 6.44295 33.6973 5.57047C33.6973 4.63087 34.3491 5.16779 34.3491 5.16779L42.3009 9.59731C42.3009 9.59731 43.0178 9.93289 42.3009 10.3356ZM44.6473 18.1208C44.6473 17.1812 43.8652 16.3758 42.9527 16.3758C42.0402 16.3758 41.258 17.1812 41.258 18.1208C41.258 19.0604 42.0402 19.8658 42.9527 19.8658C43.8652 19.8658 44.6473 19.0604 44.6473 18.1208ZM17.7937 0.0671141C16.8812 0.0671141 16.0991 0.805369 16.0991 1.81208C16.0991 2.68456 15.6428 2.08054 15.5125 2.01342C13.883 0.738255 11.8625 0 9.7116 0C4.36696 0 0 4.49664 0 10C0 15.5034 4.36696 20 9.7116 20C11.9277 20 13.883 19.2617 15.5125 17.9866C15.5777 17.9195 16.0991 17.3154 16.0991 18.1879C16.0991 19.1275 16.8161 19.9329 17.7937 19.9329C18.7062 19.9329 19.4884 19.1946 19.4884 18.1879V10V1.81208C19.4884 0.872483 18.7062 0.0671141 17.7937 0.0671141ZM16.0991 10C16.0991 13.6242 13.2312 16.5772 9.7116 16.5772C6.19196 16.5772 3.32411 13.6242 3.32411 10C3.32411 6.37584 6.19196 3.42282 9.7116 3.42282C13.2312 3.42282 16.0991 6.37584 16.0991 10Z" fill="#0036FF"/>
</svg>
