<svg width="23" height="24" viewBox="0 0 23 24" fill="none" xmlns="http://www.w3.org/2000/svg">
<path d="M15.5758 13.2653C17.2963 11.9929 18.4152 9.964 18.4152 7.69167C18.4152 3.88786 15.2912 0.75 11.5 0.75C7.70882 0.75 4.58478 3.88786 4.58478 7.69167C4.58478 9.96418 5.70392 11.9932 7.4246 13.2656C3.55474 14.2936 0.75 16.8249 0.75 19.8833C0.75 20.6309 1.25046 21.2015 1.95952 21.6286C2.67143 22.0574 3.64666 22.3768 4.72397 22.6139C6.88284 23.0892 9.5278 23.25 11.5 23.25C13.4721 23.25 16.1177 23.0892 18.2773 22.6022C19.355 22.3592 20.331 22.0308 21.0434 21.5881C21.7549 21.146 22.25 20.5579 22.25 19.7917H22.2501L22.2499 19.7841C22.1578 16.7325 19.4396 14.2863 15.5758 13.2653ZM6.45435 7.69167C6.45435 4.89547 8.71726 2.625 11.5 2.625C14.2827 2.625 16.5457 4.89547 16.5457 7.69167C16.5457 10.4795 14.2 12.6667 11.5 12.6667C8.80004 12.6667 6.45435 10.4795 6.45435 7.69167ZM11.5 21.375C8.73199 21.375 6.51505 21.0788 4.97344 20.706C4.20168 20.5193 3.60559 20.315 3.19641 20.1226C2.99128 20.0261 2.84043 19.936 2.73946 19.8574C2.6892 19.8183 2.65545 19.7852 2.63417 19.7593C2.6281 19.7519 2.62348 19.7456 2.61999 19.7405C2.6429 18.3696 3.58505 17.0826 5.18063 16.1214C6.79072 15.1516 9.02722 14.5417 11.5 14.5417C13.9725 14.5417 16.1859 15.1514 17.7845 16.121C19.3602 17.0768 20.306 18.3586 20.3776 19.7283C20.3546 19.7569 20.3125 19.7994 20.2392 19.8537C20.1301 19.9345 19.9734 20.0256 19.7659 20.1222C19.3516 20.3151 18.7577 20.5195 17.9919 20.7061C16.4619 21.0788 14.2679 21.375 11.5 21.375Z" fill="#0036FF" stroke="#0036FF" stroke-width="0.5"/>
</svg>
